<svg xmlns="http://www.w3.org/2000/svg" viewBox="0 0 546.5 108.0" width="607" height="120" role="img" aria-label="MANDATE"><title>MANDATE</title><g transform="scale(1.08000)"><path d="M50 4C50.66 4 51.34 4.39 51.97 4.79C52.61 5.2 53.21 5.99 53.81 6.42C54.42 6.85 54.98 7.28 55.61 7.37C56.24 7.45 56.9 7.17 57.6 6.91C58.29 6.66 59.08 6.05 59.79 5.82C60.51 5.6 61.27 5.4 61.91 5.57C62.54 5.74 63.1 6.29 63.61 6.84C64.12 7.4 64.49 8.32 64.96 8.89C65.44 9.46 65.87 10.03 66.46 10.27C67.04 10.52 67.75 10.42 68.49 10.35C69.23 10.28 70.14 9.89 70.89 9.86C71.65 9.83 72.43 9.83 73 10.16C73.57 10.49 73.96 11.17 74.31 11.84C74.66 12.5 74.78 13.49 75.09 14.16C75.4 14.84 75.67 15.5 76.18 15.89C76.68 16.27 77.39 16.36 78.12 16.49C78.85 16.61 79.84 16.47 80.57 16.64C81.3 16.8 82.06 17.01 82.53 17.47C82.99 17.94 83.2 18.7 83.36 19.43C83.53 20.16 83.39 21.15 83.51 21.88C83.64 22.61 83.73 23.32 84.11 23.82C84.5 24.33 85.16 24.6 85.84 24.91C86.51 25.22 87.5 25.34 88.16 25.69C88.83 26.04 89.51 26.43 89.84 27C90.17 27.57 90.17 28.35 90.14 29.11C90.11 29.86 89.72 30.77 89.65 31.51C89.58 32.25 89.48 32.96 89.73 33.54C89.97 34.13 90.54 34.56 91.11 35.04C91.68 35.51 92.6 35.88 93.16 36.39C93.71 36.9 94.26 37.46 94.43 38.09C94.6 38.73 94.4 39.49 94.18 40.21C93.95 40.92 93.34 41.71 93.09 42.4C92.83 43.1 92.55 43.76 92.63 44.39C92.72 45.02 93.15 45.58 93.58 46.19C94.01 46.79 94.8 47.39 95.21 48.03C95.61 48.66 96 49.34 96 50C96 50.66 95.61 51.34 95.21 51.97C94.8 52.61 94.01 53.21 93.58 53.81C93.15 54.42 92.72 54.98 92.63 55.61C92.55 56.24 92.83 56.9 93.09 57.6C93.34 58.29 93.95 59.08 94.18 59.79C94.4 60.51 94.6 61.27 94.43 61.91C94.26 62.54 93.71 63.1 93.16 63.61C92.6 64.12 91.68 64.49 91.11 64.96C90.54 65.44 89.97 65.87 89.73 66.46C89.48 67.04 89.58 67.75 89.65 68.49C89.72 69.23 90.11 70.14 90.14 70.89C90.17 71.65 90.17 72.43 89.84 73C89.51 73.57 88.83 73.96 88.16 74.31C87.5 74.66 86.51 74.78 85.84 75.09C85.16 75.4 84.5 75.67 84.11 76.18C83.73 76.68 83.64 77.39 83.51 78.12C83.39 78.85 83.53 79.84 83.36 80.57C83.2 81.3 82.99 82.06 82.53 82.53C82.06 82.99 81.3 83.2 80.57 83.36C79.84 83.53 78.85 83.39 78.12 83.51C77.39 83.64 76.68 83.73 76.18 84.11C75.67 84.5 75.4 85.16 75.09 85.84C74.78 86.51 74.66 87.5 74.31 88.16C73.96 88.83 73.57 89.51 73 89.84C72.43 90.17 71.65 90.17 70.89 90.14C70.14 90.11 69.23 89.72 68.49 89.65C67.75 89.58 67.04 89.48 66.46 89.73C65.87 89.97 65.44 90.54 64.96 91.11C64.49 91.68 64.12 92.6 63.61 93.16C63.1 93.71 62.54 94.26 61.91 94.43C61.27 94.6 60.51 94.4 59.79 94.18C59.08 93.95 58.29 93.34 57.6 93.09C56.9 92.83 56.24 92.55 55.61 92.63C54.98 92.72 54.42 93.15 53.81 93.58C53.21 94.01 52.61 94.8 51.97 95.21C51.34 95.61 50.66 96 50 96C49.34 96 48.66 95.61 48.03 95.21C47.39 94.8 46.79 94.01 46.19 93.58C45.58 93.15 45.02 92.72 44.39 92.63C43.76 92.55 43.1 92.83 42.4 93.09C41.71 93.34 40.92 93.95 40.21 94.18C39.49 94.4 38.73 94.6 38.09 94.43C37.46 94.26 36.9 93.71 36.39 93.16C35.88 92.6 35.51 91.68 35.04 91.11C34.56 90.54 34.13 89.97 33.54 89.73C32.96 89.48 32.25 89.58 31.51 89.65C30.77 89.72 29.86 90.11 29.11 90.14C28.35 90.17 27.57 90.17 27 89.84C26.43 89.51 26.04 88.83 25.69 88.16C25.34 87.5 25.22 86.51 24.91 85.84C24.6 85.16 24.33 84.5 23.82 84.11C23.32 83.73 22.61 83.64 21.88 83.51C21.15 83.39 20.16 83.53 19.43 83.36C18.7 83.2 17.94 82.99 17.47 82.53C17.01 82.06 16.8 81.3 16.64 80.57C16.47 79.84 16.61 78.85 16.49 78.12C16.36 77.39 16.27 76.68 15.89 76.18C15.5 75.67 14.84 75.4 14.16 75.09C13.49 74.78 12.5 74.66 11.84 74.31C11.17 73.96 10.49 73.57 10.16 73C9.83 72.43 9.83 71.65 9.86 70.89C9.89 70.14 10.28 69.23 10.35 68.49C10.42 67.75 10.52 67.04 10.27 66.46C10.03 65.87 9.46 65.44 8.89 64.96C8.32 64.49 7.4 64.12 6.84 63.61C6.29 63.1 5.74 62.54 5.57 61.91C5.4 61.27 5.6 60.51 5.82 59.79C6.05 59.08 6.66 58.29 6.91 57.6C7.17 56.9 7.45 56.24 7.37 55.61C7.28 54.98 6.85 54.42 6.42 53.81C5.99 53.21 5.2 52.61 4.79 51.97C4.39 51.34 4 50.66 4 50C4 49.34 4.39 48.66 4.79 48.03C5.2 47.39 5.99 46.79 6.42 46.19C6.85 45.58 7.28 45.02 7.37 44.39C7.45 43.76 7.17 43.1 6.91 42.4C6.66 41.71 6.05 40.92 5.82 40.21C5.6 39.49 5.4 38.73 5.57 38.09C5.74 37.46 6.29 36.9 6.84 36.39C7.4 35.88 8.32 35.51 8.89 35.04C9.46 34.56 10.03 34.13 10.27 33.54C10.52 32.96 10.42 32.25 10.35 31.51C10.28 30.77 9.89 29.86 9.86 29.11C9.83 28.35 9.83 27.57 10.16 27C10.49 26.43 11.17 26.04 11.84 25.69C12.5 25.34 13.49 25.22 14.16 24.91C14.84 24.6 15.5 24.33 15.89 23.82C16.27 23.32 16.36 22.61 16.49 21.88C16.61 21.15 16.47 20.16 16.64 19.43C16.8 18.7 17.01 17.94 17.47 17.47C17.94 17.01 18.7 16.8 19.43 16.64C20.16 16.47 21.15 16.61 21.88 16.49C22.61 16.36 23.32 16.27 23.82 15.89C24.33 15.5 24.6 14.84 24.91 14.16C25.22 13.49 25.34 12.5 25.69 11.84C26.04 11.17 26.43 10.49 27 10.16C27.57 9.83 28.35 9.83 29.11 9.86C29.86 9.89 30.77 10.28 31.51 10.35C32.25 10.42 32.96 10.52 33.54 10.27C34.13 10.03 34.56 9.46 35.04 8.89C35.51 8.32 35.88 7.4 36.39 6.84C36.9 6.29 37.46 5.74 38.09 5.57C38.73 5.4 39.49 5.6 40.21 5.82C40.92 6.05 41.71 6.66 42.4 6.91C43.1 7.17 43.76 7.45 44.39 7.37C45.02 7.28 45.58 6.85 46.19 6.42C46.79 5.99 47.39 5.2 48.03 4.79C48.66 4.39 49.34 4 50 4Z" fill="#13B98A"/><circle cx="50" cy="50" r="34" fill="none" stroke="#06140F" stroke-opacity=".28" stroke-width="1.6"/><polyline points="31,66 31,36 50,56 69,36 69,66" fill="none" stroke="#06140F" stroke-width="8.5" stroke-linecap="round" stroke-linejoin="round"/></g><path transform="translate(138.24 90.00)" d="M5.239941406250001 0.0V-72.0H28.480126953125L48.880029296875 -2.6H40.5066162109375L60.8931884765625 -72.0H84.2400390625V0.0H69.5132568359375V-67.7H72.01328125L52.1400390625 0.0H36.6466064453125L16.9600341796875 -67.10000000000001H19.3667236328125V0.0Z M125.47998046875 0.0Q124.893310546875 -2.1666748046875 124.6499755859375 -4.646679687500001Q124.406640625 -7.1266845703125 124.406640625 -10.433349609375H123.9999755859375V-34.5533447265625Q123.9999755859375 -37.83330078125 121.9099853515625 -39.649951171875Q119.81999511718749 -41.4666015625 115.693359375 -41.4666015625Q111.76005859375 -41.4666015625 109.430078125 -40.09661865234375Q107.10009765625 -38.726635742187504 106.4200927734375 -36.1066650390625H92.5599853515625Q93.52666015625 -43.039990234375004 99.6 -47.519995117187506Q105.67333984375 -52.0 116.180029296875 -52.0Q127.0800537109375 -52.0 132.80007324218752 -47.12666015625Q138.5200927734375 -42.2533203125 138.5200927734375 -33.066650390625V-10.433349609375Q138.5200927734375 -7.9533447265625 138.86676025390625 -5.4166748046875Q139.213427734375 -2.8800048828125 139.9934326171875 0.0ZM107.6999755859375 1.0Q100.07998046875 1.0 95.56998291015626 -2.85Q91.0599853515625 -6.7 91.0599853515625 -13.1199951171875Q91.0599853515625 -20.193334960937502 96.35999755859376 -24.500012207031254Q101.660009765625 -28.806689453125003 111.206689453125 -30.12001953125L126.2999755859375 -32.2800048828125V-23.719970703125L113.6200439453125 -21.7733154296875Q109.5134033203125 -21.1533203125 107.5467529296875 -19.5199951171875Q105.5801025390625 -17.886669921875 105.5801025390625 -15.006689453125Q105.5801025390625 -12.413378906250001 107.43675537109374 -11.0667236328125Q109.293408203125 -9.720068359375 112.4400390625 -9.720068359375Q117.27333984375 -9.720068359375 120.63665771484375 -12.3033935546875Q123.9999755859375 -14.88671875 123.9999755859375 -18.386694335937502L125.393310546875 -10.446679687500001Q123.23330078125 -4.786669921875 118.72330322265626 -1.8933349609375Q114.2133056640625 1.0 107.6999755859375 1.0Z M148.03330078125 0.0V-51.0H162.25341796875V-39.0H162.566748046875V0.0ZM183.599951171875 0.0V-31.719970703125Q183.599951171875 -36.026611328125 181.39996337890625 -38.179931640625Q179.19997558593752 -40.333251953125 174.99333496093752 -40.333251953125Q171.39335937500002 -40.333251953125 168.57004394531253 -38.69326171875Q165.74672851562502 -37.053271484375 164.15673828125 -34.1799560546875Q162.566748046875 -31.306640625 162.566748046875 -27.413330078125L161.26674804687502 -39.7Q163.7734130859375 -45.3066650390625 168.65673828125 -48.65333251953125Q173.54006347656252 -52.0 180.620068359375 -52.0Q189.0867431640625 -52.0 193.61007080078127 -47.263330078125Q198.1333984375 -42.52666015625 198.1333984375 -34.566650390625V0.0Z M243.799951171875 0.0V-11.339990234375001L244.799951171875 -11.133325195312501Q243.7399658203125 -5.613330078125 238.78330078125 -2.3066650390625Q233.8266357421875 1.0 226.919970703125 1.0Q219.9266357421875 1.0 214.7766357421875 -2.2533325195312504Q209.6266357421875 -5.506665039062501 206.82330322265625 -11.406665039062501Q204.019970703125 -17.3066650390625 204.019970703125 -25.3Q204.019970703125 -33.3933349609375 206.919970703125 -39.3933349609375Q209.819970703125 -45.3933349609375 215.06663818359374 -48.693334960937506Q220.3133056640625 -51.9933349609375 227.3133056640625 -51.9933349609375Q234.606640625 -51.9933349609375 239.17996826171876 -48.586669921875Q243.7532958984375 -45.180004882812504 244.6199462890625 -39.246679687500006L243.48662109375 -39.1400146484375V-72.0H258.020068359375V0.0ZM231.5000244140625 -10.666748046875Q236.9599853515625 -10.666748046875 240.32996826171876 -14.5167236328125Q243.699951171875 -18.36669921875 243.699951171875 -25.5066650390625Q243.699951171875 -32.63330078125 240.27996826171875 -36.47994384765625Q236.8599853515625 -40.3265869140625 231.3133544921875 -40.3265869140625Q225.9533935546875 -40.3265869140625 222.54007568359373 -36.4332763671875Q219.1267578125 -32.5399658203125 219.1267578125 -25.3933349609375Q219.1267578125 -18.2600341796875 222.54007568359373 -14.46339111328125Q225.9533935546875 -10.666748046875 231.5000244140625 -10.666748046875Z M300.17998046875 0.0Q299.593310546875 -2.1666748046875 299.3499755859375 -4.646679687500001Q299.106640625 -7.1266845703125 299.106640625 -10.433349609375H298.6999755859375V-34.5533447265625Q298.6999755859375 -37.83330078125 296.6099853515625 -39.649951171875Q294.5199951171875 -41.4666015625 290.393359375 -41.4666015625Q286.46005859375 -41.4666015625 284.13007812499995 -40.09661865234375Q281.80009765625 -38.726635742187504 281.1200927734375 -36.1066650390625H267.2599853515625Q268.22666015625 -43.039990234375004 274.29999999999995 -47.519995117187506Q280.37333984375 -52.0 290.880029296875 -52.0Q301.7800537109375 -52.0 307.5000732421875 -47.12666015625Q313.2200927734375 -42.2533203125 313.2200927734375 -33.066650390625V-10.433349609375Q313.2200927734375 -7.9533447265625 313.56676025390624 -5.4166748046875Q313.913427734375 -2.8800048828125 314.6934326171875 0.0ZM282.3999755859375 1.0Q274.77998046875 1.0 270.2699829101563 -2.85Q265.7599853515625 -6.7 265.7599853515625 -13.1199951171875Q265.7599853515625 -20.193334960937502 271.05999755859375 -24.500012207031254Q276.360009765625 -28.806689453125003 285.906689453125 -30.12001953125L300.9999755859375 -32.2800048828125V-23.719970703125L288.3200439453125 -21.7733154296875Q284.2134033203125 -21.1533203125 282.24675292968755 -19.5199951171875Q280.2801025390625 -17.886669921875 280.2801025390625 -15.006689453125Q280.2801025390625 -12.413378906250001 282.1367553710937 -11.0667236328125Q283.993408203125 -9.720068359375 287.1400390625 -9.720068359375Q291.97333984375 -9.720068359375 295.3366577148438 -12.3033935546875Q298.6999755859375 -14.88671875 298.6999755859375 -18.386694335937502L300.093310546875 -10.446679687500001Q297.93330078125 -4.786669921875 293.4233032226563 -1.8933349609375Q288.9133056640625 1.0 282.3999755859375 1.0Z M343.280029296875 1.086669921875Q333.56667480468747 1.086669921875 328.87666015624995 -3.6033447265625Q324.1866455078125 -8.293359375 324.1866455078125 -17.8333984375V-62.433325195312506L338.7200927734375 -67.8600341796875V-17.373388671875002Q338.7200927734375 -13.9134033203125 340.64008789062495 -12.193408203125001Q342.56008300781247 -10.473413085937501 346.62673339843747 -10.473413085937501Q348.16005859374997 -10.473413085937501 349.4700561523437 -10.77008056640625Q350.78005371093747 -11.066748046875 352.0533935546875 -11.466748046875V-0.37333984375Q350.773388671875 0.30666503906250003 348.4567138671875 0.69666748046875Q346.14003906249997 1.086669921875 343.280029296875 1.086669921875ZM314.6199951171875 -39.906591796875006V-51.0H352.0533935546875V-39.906591796875006Z M380.9266845703125 1.0Q372.5066650390625 1.0 366.2533203125 -2.3566650390625004Q359.9999755859375 -5.713330078125001 356.56663818359374 -11.713330078125Q353.13330078125 -17.713330078125 353.13330078125 -25.513330078125Q353.13330078125 -33.4066650390625 356.5633056640625 -39.356665039062506Q359.993310546875 -45.3066650390625 366.1599853515625 -48.65333251953125Q372.32666015625 -52.0 380.47333984375 -52.0Q388.32001953125 -52.0 394.0833618164063 -48.8066650390625Q399.8467041015625 -45.613330078125 403.02337646484375 -39.9199951171875Q406.200048828125 -34.22666015625 406.200048828125 -26.5333251953125Q406.200048828125 -24.973315429687503 406.10338134765624 -23.653308105468753Q406.0067138671875 -22.333300781250003 405.8067138671875 -21.1399658203125H361.7466796875V-30.8266845703125H394.1865966796875L391.5865966796875 -28.900048828125Q391.5865966796875 -35.300000000000004 388.56328125 -38.38330078125Q385.5399658203125 -41.4666015625 380.286669921875 -41.4666015625Q374.2733642578125 -41.4666015625 370.9300537109375 -37.38328857421875Q367.5867431640625 -33.2999755859375 367.5867431640625 -25.239990234375Q367.5867431640625 -17.3533447265625 370.9300537109375 -13.44337158203125Q374.2733642578125 -9.5333984375 380.860009765625 -9.5333984375Q384.5466552734375 -9.5333984375 387.219970703125 -10.796716308593751Q389.8932861328125 -12.0600341796875 391.2199462890625 -14.8466796875H404.88671875Q402.38671875 -7.473339843750001 396.350048828125 -3.2366699218750004Q390.31337890625 1.0 380.9266845703125 1.0Z" fill="#FAFAF8"/></svg>